<?xml version="1.0" standalone="no"?>
<!DOCTYPE svg PUBLIC "-//W3C//DTD SVG 20010904//EN"
 "http://www.w3.org/TR/2001/REC-SVG-20010904/DTD/svg10.dtd">
<svg version="1.0" xmlns="http://www.w3.org/2000/svg"
 width="200.000000pt" height="200.000000pt" viewBox="0 0 200.000000 200.000000"
 preserveAspectRatio="xMidYMid meet">

<g transform="translate(0.000000,200.000000) scale(0.100000,-0.100000)"
fill="#000000" stroke="none">
<path d="M650 1185 l0 -225 30 0 30 0 0 225 0 225 -30 0 -30 0 0 -225z"/>
<path d="M520 1254 c0 -23 -3 -25 -22 -19 -53 17 -113 16 -148 -3 -38 -21 -80
-90 -80 -131 0 -48 41 -113 87 -137 l41 -21 -50 -49 c-63 -62 -78 -91 -78
-150 0 -62 29 -107 86 -135 99 -48 209 13 221 122 6 61 -29 125 -84 155 l-41
21 44 44 c70 68 84 107 84 227 l0 102 -30 0 c-26 0 -30 -4 -30 -26z m-49 -74
c10 -6 26 -24 35 -41 45 -89 -66 -171 -143 -105 -39 34 -39 98 0 132 30 25 75
31 108 14z m14 -362 c15 -14 28 -38 32 -60 5 -33 2 -41 -31 -74 -33 -33 -41
-36 -74 -31 -114 19 -107 187 9 187 25 0 47 -8 64 -22z"/>
<path d="M1262 1250 c-19 -4 -49 -22 -67 -40 -72 -70 -62 -189 20 -240 81 -51
180 -24 223 60 27 55 28 82 1 136 -32 67 -105 102 -177 84z m114 -91 c43 -48
10 -140 -57 -154 -32 -7 -83 16 -99 44 -15 29 -12 83 5 109 32 44 111 45 151
1z"/>
<path d="M780 1160 c0 -159 45 -217 158 -206 31 3 76 6 100 6 l42 -1 0 146 0
145 -30 0 -30 0 0 -91 c0 -87 -1 -92 -29 -120 -35 -35 -86 -39 -122 -10 -22
17 -24 28 -27 120 l-4 101 -29 0 -29 0 0 -90z"/>
<path d="M1500 990 l0 -30 115 0 115 0 0 30 0 30 -115 0 -115 0 0 -30z"/>
</g>
</svg>
